ffmpeg started on 2025-06-20 at 16:44:12
Report written to "D:\Convert\FFMetrics\reports\psnr_report-6.txt"
Log level: 32
Command line:
ffmpeg -hide_banner -nostdin -i "G:\\\xc0\xed\xe8\xec\xe5\\[\xd2\xee\xef]\\\xc2\xee\xeb\xf7\xe8\xf6\xe0 \xe8 \xef\xf0\xff\xed\xee\xf1\xf2\xe8\\\xd2\xee\xf0\xe3\xee\xe2\xe5\xf6 \xe2\xf1\xf2\xf0\xe5\xf7\xe0\xe5\xf2 \xec\xf3\xe4\xf0\xf3\xfe \xe2\xee\xeb\xf7\xe8\xf6\xf3\\DC_Ookami_to_Koushinryou_Merchant_Meets_the_Wise_Wolf_03_Telegram_HEVC.mkv" -i "G:\\\xc0\xed\xe8\xec\xe5\\[\xd2\xee\xef]\\\xc2\xee\xeb\xf7\xe8\xf6\xe0 \xe8 \xef\xf0\xff\xed\xee\xf1\xf2\xe8\\\xd2\xee\xf0\xe3\xee\xe2\xe5\xf6 \xe2\xf1\xf2\xf0\xe5\xf7\xe0\xe5\xf2 \xec\xf3\xe4\xf0\xf3\xfe \xe2\xee\xeb\xf7\xe8\xf6\xf3\\DC_Ookami_to_Koushinryou_Merchant_Meets_the_Wise_Wolf_03_Telegram.mp4" -lavfi "[0:v]settb=AVTB,setpts=PTS-STARTPTS,format=pix_fmts=yuv420p10,fps=24000/1001,scale=1920:1080:flags=bicubic[main];[1:v]settb=AVTB,setpts=PTS-STARTPTS,format=pix_fmts=yuv420p,fps=24000/1001,scale=1920:1080:flags=bicubic[ref];[main][ref]psnr=eof_action=endall:stats_file='D\\:/Convert/FFMetrics/logs/psnr_logfile-6.txt'" -f null -
Input #0, matroska,webm, from 'G:\Аниме\[Топ]\Волчица и пряности\Торговец встречает мудрую волчицу\DC_Ookami_to_Koushinryou_Merchant_Meets_the_Wise_Wolf_03_Telegram_HEVC.mkv':
  Metadata:
    COMPATIBLE_BRANDS: isomiso2avc1mp41
    MAJOR_BRAND     : isom
    MINOR_VERSION   : 512
    ENCODER         : Lavf61.7.100
  Duration: 00:23:57.78, start: -0.021000, bitrate: 810 kb/s
  Stream #0:0: Video: hevc (Main 10), yuv420p10le(tv, bt709, progressive), 1920x1080 [SAR 1:1 DAR 16:9], 23.98 fps, 23.98 tbr, 1k tbn (default)
      Metadata:
        HANDLER_NAME    : VideoHandler
        VENDOR_ID       : [0][0][0][0]
        ENCODER         : Lavc61.19.100 libx265
        BPS             : 614075
        DURATION        : 00:23:56.685708333
        NUMBER_OF_FRAMES: 34446
        NUMBER_OF_BYTES : 110279174
        _STATISTICS_WRITING_APP: mkvpropedit v66.0.0 ('Josie') 64-bit
        _STATISTICS_WRITING_DATE_UTC: 2025-06-20 09:23:55
        _STATISTICS_TAGS: BPS DURATION NUMBER_OF_FRAMES NUMBER_OF_BYTES
  Stream #0:1: Audio: aac (LC), 48000 Hz, stereo, fltp (default)
      Metadata:
        HANDLER_NAME    : SoundHandler
        VENDOR_ID       : [0][0][0][0]
        ENCODER         : Lavc61.19.100 aac
        BPS             : 192843
        DURATION        : 00:23:57.781000000
        NUMBER_OF_FRAMES: 67397
        NUMBER_OF_BYTES : 34658392
        _STATISTICS_WRITING_APP: mkvpropedit v66.0.0 ('Josie') 64-bit
        _STATISTICS_WRITING_DATE_UTC: 2025-06-20 09:23:55
        _STATISTICS_TAGS: BPS DURATION NUMBER_OF_FRAMES NUMBER_OF_BYTES
Input #1, mov,mp4,m4a,3gp,3g2,mj2, from 'G:\Аниме\[Топ]\Волчица и пряности\Торговец встречает мудрую волчицу\DC_Ookami_to_Koushinryou_Merchant_Meets_the_Wise_Wolf_03_Telegram.mp4':
  Metadata:
    major_brand     : isom
    minor_version   : 512
    compatible_brands: isomiso2avc1mp41
    encoder         : Lavf60.16.100
  Duration: 00:23:57.75, start: 0.000000, bitrate: 3561 kb/s
  Stream #1:0[0x1](und): Video: h264 (High) (avc1 / 0x31637661), yuv420p(tv, bt709, progressive), 1920x1080 [SAR 1:1 DAR 16:9], 3415 kb/s, 23.98 fps, 23.98 tbr, 24k tbn (default)
      Metadata:
        handler_name    : VideoHandler
        vendor_id       : [0][0][0][0]
        encoder         : Lavc60.31.102 h264_qsv
  Stream #1:1[0x2](und): Audio: aac (HE-AACv2) (mp4a / 0x6134706D), 48000 Hz, stereo, fltp, 144 kb/s (default)
      Metadata:
        handler_name    : SoundHandler
        vendor_id       : [0][0][0][0]
Stream mapping:
  Stream #0:0 (hevc) -> settb:default
  Stream #1:0 (h264) -> settb:default
  psnr:default -> Stream #0:0 (wrapped_avframe)
  Stream #0:1 -> #0:1 (aac (native) -> pcm_s16le (native))
Output #0, null, to 'pipe:':
  Metadata:
    COMPATIBLE_BRANDS: isomiso2avc1mp41
    MAJOR_BRAND     : isom
    MINOR_VERSION   : 512
    encoder         : Lavf61.7.100
  Stream #0:0: Video: wrapped_avframe, yuv420p10le(tv, bt709, progressive), 1920x1080 [SAR 1:1 DAR 16:9], q=2-31, 200 kb/s, 23.98 fps, 23.98 tbn
      Metadata:
        encoder         : Lavc61.19.100 wrapped_avframe
  Stream #0:1: Audio: pcm_s16le, 48000 Hz, stereo, s16, 1536 kb/s (default)
      Metadata:
        HANDLER_NAME    : SoundHandler
        VENDOR_ID       : [0][0][0][0]
        _STATISTICS_TAGS: BPS DURATION NUMBER_OF_FRAMES NUMBER_OF_BYTES
        BPS             : 192843
        DURATION        : 00:23:57.781000000
        NUMBER_OF_FRAMES: 67397
        NUMBER_OF_BYTES : 34658392
        _STATISTICS_WRITING_APP: mkvpropedit v66.0.0 ('Josie') 64-bit
        _STATISTICS_WRITING_DATE_UTC: 2025-06-20 09:23:55
        encoder         : Lavc61.19.100 pcm_s16le
frame=  187 fps=0.0 q=-0.0 size=N/A time=00:00:07.79 bitrate=N/A speed=15.2x    frame=  416 fps=401 q=-0.0 size=N/A time=00:00:17.35 bitrate=N/A speed=16.7x    frame=  616 fps=398 q=-0.0 size=N/A time=00:00:25.69 bitrate=N/A speed=16.6x    frame=  893 fps=430 q=-0.0 size=N/A time=00:00:37.24 bitrate=N/A speed=17.9x    frame= 1161 fps=449 q=-0.0 size=N/A time=00:00:48.42 bitrate=N/A speed=18.7x    frame= 1404 fps=453 q=-0.0 size=N/A time=00:00:58.55 bitrate=N/A speed=18.9x    frame= 1634 fps=453 q=-0.0 size=N/A time=00:01:08.15 bitrate=N/A speed=18.9x    frame= 1901 fps=460 q=-0.0 size=N/A time=00:01:19.28 bitrate=N/A speed=19.2x    frame= 2139 fps=460 q=-0.0 size=N/A time=00:01:29.21 bitrate=N/A speed=19.2x    frame= 2390 fps=463 q=-0.0 size=N/A time=00:01:39.68 bitrate=N/A speed=19.3x    frame= 2607 fps=459 q=-0.0 size=N/A time=00:01:48.73 bitrate=N/A speed=19.2x    frame= 2817 fps=454 q=-0.0 size=N/A time=00:01:57.49 bitrate=N/A speed=18.9x    frame= 2998 fps=447 q=-0.0 size=N/A time=00:02:05.04 bitrate=N/A speed=18.6x    frame= 3198 fps=442 q=-0.0 size=N/A time=00:02:13.38 bitrate=N/A speed=18.4x    frame= 3398 fps=439 q=-0.0 size=N/A time=00:02:21.72 bitrate=N/A speed=18.3x    frame= 3594 fps=436 q=-0.0 size=N/A time=00:02:29.89 bitrate=N/A speed=18.2x    frame= 3815 fps=435 q=-0.0 size=N/A time=00:02:39.11 bitrate=N/A speed=18.1x    frame= 4056 fps=436 q=-0.0 size=N/A time=00:02:49.16 bitrate=N/A speed=18.2x    frame= 4261 fps=435 q=-0.0 size=N/A time=00:02:57.71 bitrate=N/A speed=18.1x    frame= 4504 fps=437 q=-0.0 size=N/A time=00:03:07.85 bitrate=N/A speed=18.2x    frame= 4721 fps=436 q=-0.0 size=N/A time=00:03:16.90 bitrate=N/A speed=18.2x    frame= 4935 fps=435 q=-0.0 size=N/A time=00:03:25.83 bitrate=N/A speed=18.1x    frame= 5178 fps=435 q=-0.0 size=N/A time=00:03:35.96 bitrate=N/A speed=18.1x    frame= 5424 fps=436 q=-0.0 size=N/A time=00:03:46.22 bitrate=N/A speed=18.2x    frame= 5672 fps=438 q=-0.0 size=N/A time=00:03:56.56 bitrate=N/A speed=18.3x    frame= 5960 fps=440 q=-0.0 size=N/A time=00:04:08.58 bitrate=N/A speed=18.3x    frame= 6178 fps=439 q=-0.0 size=N/A time=00:04:17.67 bitrate=N/A speed=18.3x    frame= 6392 fps=438 q=-0.0 size=N/A time=00:04:26.59 bitrate=N/A speed=18.3x    frame= 6607 fps=438 q=-0.0 size=N/A time=00:04:35.56 bitrate=N/A speed=18.3x    frame= 6804 fps=436 q=-0.0 size=N/A time=00:04:43.78 bitrate=N/A speed=18.2x    frame= 7027 fps=436 q=-0.0 size=N/A time=00:04:53.08 bitrate=N/A speed=18.2x    frame= 7304 fps=439 q=-0.0 size=N/A time=00:05:04.63 bitrate=N/A speed=18.3x    frame= 7546 fps=440 q=-0.0 size=N/A time=00:05:14.73 bitrate=N/A speed=18.3x    frame= 7788 fps=441 q=-0.0 size=N/A time=00:05:24.82 bitrate=N/A speed=18.4x    frame= 8043 fps=442 q=-0.0 size=N/A time=00:05:35.46 bitrate=N/A speed=18.4x    frame= 8266 fps=442 q=-0.0 size=N/A time=00:05:44.76 bitrate=N/A speed=18.4x    frame= 8502 fps=442 q=-0.0 size=N/A time=00:05:54.60 bitrate=N/A speed=18.5x    frame= 8744 fps=443 q=-0.0 size=N/A time=00:06:04.69 bitrate=N/A speed=18.5x    frame= 9002 fps=444 q=-0.0 size=N/A time=00:06:15.45 bitrate=N/A speed=18.5x    frame= 9264 fps=446 q=-0.0 size=N/A time=00:06:26.38 bitrate=N/A speed=18.6x    frame= 9551 fps=449 q=-0.0 size=N/A time=00:06:38.35 bitrate=N/A speed=18.7x    frame= 9798 fps=449 q=-0.0 size=N/A time=00:06:48.65 bitrate=N/A speed=18.7x    frame=10021 fps=449 q=-0.0 size=N/A time=00:06:57.95 bitrate=N/A speed=18.7x    frame=10294 fps=451 q=-0.0 size=N/A time=00:07:09.34 bitrate=N/A speed=18.8x    frame=10566 fps=453 q=-0.0 size=N/A time=00:07:20.69 bitrate=N/A speed=18.9x    frame=10837 fps=454 q=-0.0 size=N/A time=00:07:31.99 bitrate=N/A speed=18.9x    frame=11110 fps=456 q=-0.0 size=N/A time=00:07:43.37 bitrate=N/A speed=  19x    frame=11372 fps=457 q=-0.0 size=N/A time=00:07:54.30 bitrate=N/A speed=19.1x    frame=11649 fps=459 q=-0.0 size=N/A time=00:08:05.86 bitrate=N/A speed=19.1x    frame=11934 fps=460 q=-0.0 size=N/A time=00:08:17.74 bitrate=N/A speed=19.2x    frame=12173 fps=460 q=-0.0 size=N/A time=00:08:27.71 bitrate=N/A speed=19.2x    frame=12455 fps=462 q=-0.0 size=N/A time=00:08:39.47 bitrate=N/A speed=19.3x    frame=12741 fps=464 q=-0.0 size=N/A time=00:08:51.40 bitrate=N/A speed=19.3x    frame=12996 fps=464 q=-0.0 size=N/A time=00:09:02.04 bitrate=N/A speed=19.4x    frame=13268 fps=466 q=-0.0 size=N/A time=00:09:13.38 bitrate=N/A speed=19.4x    frame=13535 fps=466 q=-0.0 size=N/A time=00:09:24.52 bitrate=N/A speed=19.4x    frame=13789 fps=467 q=-0.0 size=N/A time=00:09:35.11 bitrate=N/A speed=19.5x    frame=14050 fps=468 q=-0.0 size=N/A time=00:09:46.00 bitrate=N/A speed=19.5x    frame=14321 fps=468 q=-0.0 size=N/A time=00:09:57.30 bitrate=N/A speed=19.5x    frame=14588 fps=469 q=-0.0 size=N/A time=00:10:08.44 bitrate=N/A speed=19.6x    frame=14865 fps=470 q=-0.0 size=N/A time=00:10:19.99 bitrate=N/A speed=19.6x    frame=15140 fps=471 q=-0.0 size=N/A time=00:10:31.46 bitrate=N/A speed=19.7x    frame=15413 fps=472 q=-0.0 size=N/A time=00:10:42.85 bitrate=N/A speed=19.7x    frame=15684 fps=473 q=-0.0 size=N/A time=00:10:54.15 bitrate=N/A speed=19.7x    frame=15961 fps=474 q=-0.0 size=N/A time=00:11:05.70 bitrate=N/A speed=19.8x    frame=16248 fps=475 q=-0.0 size=N/A time=00:11:17.67 bitrate=N/A speed=19.8x    frame=16534 fps=476 q=-0.0 size=N/A time=00:11:29.60 bitrate=N/A speed=19.9x    frame=16812 fps=477 q=-0.0 size=N/A time=00:11:41.20 bitrate=N/A speed=19.9x    frame=17085 fps=478 q=-0.0 size=N/A time=00:11:52.58 bitrate=N/A speed=19.9x    frame=17370 fps=479 q=-0.0 size=N/A time=00:12:04.47 bitrate=N/A speed=  20x    frame=17628 fps=479 q=-0.0 size=N/A time=00:12:15.23 bitrate=N/A speed=  20x    frame=17890 fps=480 q=-0.0 size=N/A time=00:12:26.16 bitrate=N/A speed=  20x    frame=18160 fps=480 q=-0.0 size=N/A time=00:12:37.42 bitrate=N/A speed=  20x    frame=18432 fps=481 q=-0.0 size=N/A time=00:12:48.76 bitrate=N/A speed=20.1x    frame=18710 fps=482 q=-0.0 size=N/A time=00:13:00.36 bitrate=N/A speed=20.1x    frame=18980 fps=482 q=-0.0 size=N/A time=00:13:11.62 bitrate=N/A speed=20.1x    frame=19257 fps=483 q=-0.0 size=N/A time=00:13:23.17 bitrate=N/A speed=20.1x    frame=19543 fps=484 q=-0.0 size=N/A time=00:13:35.10 bitrate=N/A speed=20.2x    frame=19819 fps=484 q=-0.0 size=N/A time=00:13:46.61 bitrate=N/A speed=20.2x    frame=20079 fps=485 q=-0.0 size=N/A time=00:13:57.46 bitrate=N/A speed=20.2x    frame=20347 fps=485 q=-0.0 size=N/A time=00:14:08.63 bitrate=N/A speed=20.2x    frame=20618 fps=486 q=-0.0 size=N/A time=00:14:19.94 bitrate=N/A speed=20.3x    frame=20881 fps=486 q=-0.0 size=N/A time=00:14:30.91 bitrate=N/A speed=20.3x    frame=21159 fps=486 q=-0.0 size=N/A time=00:14:42.50 bitrate=N/A speed=20.3x    frame=21411 fps=487 q=-0.0 size=N/A time=00:14:53.01 bitrate=N/A speed=20.3x    frame=21664 fps=487 q=-0.0 size=N/A time=00:15:03.56 bitrate=N/A speed=20.3x    frame=21892 fps=486 q=-0.0 size=N/A time=00:15:13.07 bitrate=N/A speed=20.3x    frame=22151 fps=486 q=-0.0 size=N/A time=00:15:23.88 bitrate=N/A speed=20.3x    frame=22419 fps=487 q=-0.0 size=N/A time=00:15:35.05 bitrate=N/A speed=20.3x    frame=22669 fps=487 q=-0.0 size=N/A time=00:15:45.48 bitrate=N/A speed=20.3x    frame=22943 fps=487 q=-0.0 size=N/A time=00:15:56.91 bitrate=N/A speed=20.3x    frame=23188 fps=487 q=-0.0 size=N/A time=00:16:07.13 bitrate=N/A speed=20.3x    frame=23422 fps=487 q=-0.0 size=N/A time=00:16:16.89 bitrate=N/A speed=20.3x    frame=23649 fps=486 q=-0.0 size=N/A time=00:16:26.36 bitrate=N/A speed=20.3x    frame=23911 fps=486 q=-0.0 size=N/A time=00:16:37.32 bitrate=N/A speed=20.3x    frame=24178 fps=487 q=-0.0 size=N/A time=00:16:48.42 bitrate=N/A speed=20.3x    frame=24392 fps=486 q=-0.0 size=N/A time=00:16:57.34 bitrate=N/A speed=20.3x    frame=24627 fps=486 q=-0.0 size=N/A time=00:17:07.15 bitrate=N/A speed=20.3x    frame=24870 fps=485 q=-0.0 size=N/A time=00:17:17.28 bitrate=N/A speed=20.2x    frame=25149 fps=486 q=-0.0 size=N/A time=00:17:28.92 bitrate=N/A speed=20.3x    frame=25408 fps=486 q=-0.0 size=N/A time=00:17:39.72 bitrate=N/A speed=20.3x    frame=25649 fps=486 q=-0.0 size=N/A time=00:17:49.77 bitrate=N/A speed=20.3x    frame=25913 fps=486 q=-0.0 size=N/A time=00:18:00.78 bitrate=N/A speed=20.3x    frame=26169 fps=486 q=-0.0 size=N/A time=00:18:11.46 bitrate=N/A speed=20.3x    frame=26444 fps=487 q=-0.0 size=N/A time=00:18:22.93 bitrate=N/A speed=20.3x    frame=26716 fps=487 q=-0.0 size=N/A time=00:18:34.27 bitrate=N/A speed=20.3x    frame=26978 fps=487 q=-0.0 size=N/A time=00:18:45.20 bitrate=N/A speed=20.3x    frame=27235 fps=487 q=-0.0 size=N/A time=00:18:55.92 bitrate=N/A speed=20.3x    frame=27503 fps=488 q=-0.0 size=N/A time=00:19:07.10 bitrate=N/A speed=20.3x    frame=27759 fps=488 q=-0.0 size=N/A time=00:19:17.78 bitrate=N/A speed=20.3x    frame=28022 fps=488 q=-0.0 size=N/A time=00:19:28.75 bitrate=N/A speed=20.4x    frame=28282 fps=488 q=-0.0 size=N/A time=00:19:39.59 bitrate=N/A speed=20.4x    frame=28543 fps=488 q=-0.0 size=N/A time=00:19:50.48 bitrate=N/A speed=20.4x    frame=28790 fps=488 q=-0.0 size=N/A time=00:20:00.78 bitrate=N/A speed=20.4x    frame=29053 fps=488 q=-0.0 size=N/A time=00:20:11.75 bitrate=N/A speed=20.4x    frame=29339 fps=489 q=-0.0 size=N/A time=00:20:23.68 bitrate=N/A speed=20.4x    frame=29587 fps=489 q=-0.0 size=N/A time=00:20:34.02 bitrate=N/A speed=20.4x    frame=29858 fps=489 q=-0.0 size=N/A time=00:20:45.32 bitrate=N/A speed=20.4x    frame=30138 fps=490 q=-0.0 size=N/A time=00:20:57.00 bitrate=N/A speed=20.4x    frame=30418 fps=490 q=-0.0 size=N/A time=00:21:08.68 bitrate=N/A speed=20.4x    frame=30691 fps=490 q=-0.0 size=N/A time=00:21:20.07 bitrate=N/A speed=20.5x    frame=30983 fps=491 q=-0.0 size=N/A time=00:21:32.24 bitrate=N/A speed=20.5x    frame=31254 fps=491 q=-0.0 size=N/A time=00:21:43.55 bitrate=N/A speed=20.5x    frame=31496 fps=491 q=-0.0 size=N/A time=00:21:53.64 bitrate=N/A speed=20.5x    frame=31766 fps=491 q=-0.0 size=N/A time=00:22:04.90 bitrate=N/A speed=20.5x    frame=32035 fps=492 q=-0.0 size=N/A time=00:22:16.12 bitrate=N/A speed=20.5x    frame=32224 fps=491 q=-0.0 size=N/A time=00:22:24.00 bitrate=N/A speed=20.5x    frame=32358 fps=489 q=-0.0 size=N/A time=00:22:29.59 bitrate=N/A speed=20.4x    frame=32549 fps=488 q=-0.0 size=N/A time=00:22:37.56 bitrate=N/A speed=20.3x    frame=32802 fps=488 q=-0.0 size=N/A time=00:22:48.11 bitrate=N/A speed=20.4x    frame=33066 fps=488 q=-0.0 size=N/A time=00:22:59.12 bitrate=N/A speed=20.4x    frame=33292 fps=488 q=-0.0 size=N/A time=00:23:08.55 bitrate=N/A speed=20.3x    frame=33511 fps=487 q=-0.0 size=N/A time=00:23:17.72 bitrate=N/A speed=20.3x    frame=33754 fps=487 q=-0.0 size=N/A time=00:23:27.82 bitrate=N/A speed=20.3x    frame=33983 fps=487 q=-0.0 size=N/A time=00:23:37.37 bitrate=N/A speed=20.3x    frame=34155 fps=486 q=-0.0 size=N/A time=00:23:44.54 bitrate=N/A speed=20.3x    frame=34410 fps=486 q=-0.0 size=N/A time=00:23:55.18 bitrate=N/A speed=20.3x    [Parsed_psnr_10 @ 0000023171d12a40] PSNR y:49.290722 u:51.340226 v:51.829276 average:49.927950 min:39.973681 max:inf
[out#0/null @ 00000231714c5480] video:14801KiB audio:269588KiB subtitle:0KiB other streams:0KiB global headers:0KiB muxing overhead: unknown
frame=34446 fps=486 q=-0.0 Lsize=N/A time=00:23:56.68 bitrate=N/A speed=20.3x    
